<mxfile host="app.diagrams.net" modified="2021-11-03T09:38:16.767Z" agent="5.0 (Windows NT 10.0; Win64; x64) AppleWebKit/537.36 (KHTML, like Gecko) Chrome/95.0.4638.69 Safari/537.36" etag="5Epu-rQcC7jLAbOSOxXt" version="15.6.6" type="github">
  <diagram name="Page-1" id="c7558073-3199-34d8-9f00-42111426c3f3">
    <mxGraphModel dx="1182" dy="764" grid="1" gridSize="10" guides="1" tooltips="1" connect="1" arrows="1" fold="1" page="1" pageScale="1" pageWidth="826" pageHeight="1169" background="none" math="0" shadow="0">
      <root>
        <mxCell id="0" />
        <mxCell id="1" parent="0" />
        <mxCell id="l-ijiBefoV0viMx9o1Fx-96" value="ФОИВ" style="whiteSpace=wrap;align=center;verticalAlign=middle;fontStyle=1;strokeWidth=3;fillColor=#FFFFCC;strokeColor=default;fontColor=default;" vertex="1" parent="1">
          <mxGeometry x="33" y="90" width="120" height="60" as="geometry" />
        </mxCell>
        <mxCell id="l-ijiBefoV0viMx9o1Fx-97" value="Персона (ЛПР)" style="whiteSpace=wrap;align=center;verticalAlign=middle;fontStyle=1;strokeWidth=3;fillColor=#FFFFCC;strokeColor=default;fontColor=default;" vertex="1" parent="1">
          <mxGeometry x="33" y="290" width="120" height="60" as="geometry" />
        </mxCell>
        <mxCell id="l-ijiBefoV0viMx9o1Fx-98" value="&lt;p style=&quot;margin: 0px ; margin-top: 4px ; text-align: center ; text-decoration: underline&quot;&gt;&lt;br&gt;&lt;/p&gt;&lt;p style=&quot;margin: 0px ; margin-top: 4px ; text-align: center ; text-decoration: underline&quot;&gt;Действие&lt;/p&gt;&lt;p style=&quot;margin: 0px ; margin-top: 4px ; text-align: center ; text-decoration: underline&quot;&gt;выраженное&lt;/p&gt;&lt;p style=&quot;margin: 0px ; margin-top: 4px ; text-align: center ; text-decoration: underline&quot;&gt;глаголом&lt;/p&gt;&lt;p style=&quot;margin: 0px ; margin-top: 4px ; text-align: center ; text-decoration: underline&quot;&gt;&lt;br&gt;&lt;/p&gt;" style="verticalAlign=middle;align=center;overflow=fill;fontSize=12;fontFamily=Helvetica;html=1;rounded=1;fontStyle=1;strokeWidth=3;fillColor=#E6FFCC;strokeColor=default;fontColor=default;" vertex="1" parent="1">
          <mxGeometry x="244" y="170" width="110" height="100" as="geometry" />
        </mxCell>
        <mxCell id="l-ijiBefoV0viMx9o1Fx-113" value="" style="edgeStyle=orthogonalEdgeStyle;rounded=1;orthogonalLoop=1;jettySize=auto;html=1;labelBackgroundColor=default;fontColor=default;strokeColor=default;strokeWidth=2;" edge="1" parent="1" source="l-ijiBefoV0viMx9o1Fx-99" target="l-ijiBefoV0viMx9o1Fx-112">
          <mxGeometry relative="1" as="geometry" />
        </mxCell>
        <mxCell id="l-ijiBefoV0viMx9o1Fx-99" value="Закупки" style="whiteSpace=wrap;align=center;verticalAlign=middle;fontStyle=1;strokeWidth=3;fillColor=#FFFFCC;strokeColor=default;fontColor=default;" vertex="1" parent="1">
          <mxGeometry x="443" y="50" width="140" height="60" as="geometry" />
        </mxCell>
        <mxCell id="l-ijiBefoV0viMx9o1Fx-100" value="Нормотворчество" style="whiteSpace=wrap;align=center;verticalAlign=middle;fontStyle=1;strokeWidth=3;fillColor=#FFFFCC;strokeColor=default;fontColor=default;" vertex="1" parent="1">
          <mxGeometry x="443" y="150" width="140" height="60" as="geometry" />
        </mxCell>
        <mxCell id="l-ijiBefoV0viMx9o1Fx-101" value="Аналитика" style="whiteSpace=wrap;align=center;verticalAlign=middle;fontStyle=1;strokeWidth=3;fillColor=#FFFFCC;strokeColor=default;fontColor=default;" vertex="1" parent="1">
          <mxGeometry x="443" y="330" width="140" height="60" as="geometry" />
        </mxCell>
        <mxCell id="l-ijiBefoV0viMx9o1Fx-102" value="Нарушения" style="whiteSpace=wrap;align=center;verticalAlign=middle;fontStyle=1;strokeWidth=3;fillColor=#FFFFCC;strokeColor=default;fontColor=default;" vertex="1" parent="1">
          <mxGeometry x="443" y="240" width="140" height="60" as="geometry" />
        </mxCell>
        <mxCell id="l-ijiBefoV0viMx9o1Fx-103" value="" style="edgeStyle=elbowEdgeStyle;elbow=horizontal;strokeColor=default;strokeWidth=2;labelBackgroundColor=default;fontColor=default;exitX=1;exitY=0.5;exitDx=0;exitDy=0;entryX=0.5;entryY=0;entryDx=0;entryDy=0;" edge="1" parent="1" source="l-ijiBefoV0viMx9o1Fx-96" target="l-ijiBefoV0viMx9o1Fx-98">
          <mxGeometry width="100" height="100" relative="1" as="geometry">
            <mxPoint x="229.5" y="40" as="sourcePoint" />
            <mxPoint x="339" y="120" as="targetPoint" />
            <Array as="points">
              <mxPoint x="299" y="140" />
              <mxPoint x="248" y="90" />
              <mxPoint x="298" y="80" />
              <mxPoint x="229.5" y="70" />
            </Array>
          </mxGeometry>
        </mxCell>
        <mxCell id="l-ijiBefoV0viMx9o1Fx-104" value="" style="edgeStyle=elbowEdgeStyle;elbow=horizontal;strokeColor=default;strokeWidth=2;labelBackgroundColor=default;fontColor=default;exitX=1;exitY=0.5;exitDx=0;exitDy=0;entryX=0.5;entryY=1;entryDx=0;entryDy=0;" edge="1" parent="1" source="l-ijiBefoV0viMx9o1Fx-97" target="l-ijiBefoV0viMx9o1Fx-98">
          <mxGeometry width="100" height="100" relative="1" as="geometry">
            <mxPoint x="168" y="320" as="sourcePoint" />
            <mxPoint x="314" y="370" as="targetPoint" />
            <Array as="points">
              <mxPoint x="299" y="300" />
              <mxPoint x="263" y="290" />
              <mxPoint x="313" y="280" />
              <mxPoint x="244.5" y="270" />
            </Array>
          </mxGeometry>
        </mxCell>
        <mxCell id="l-ijiBefoV0viMx9o1Fx-106" value="" style="edgeStyle=elbowEdgeStyle;elbow=horizontal;strokeColor=default;strokeWidth=2;labelBackgroundColor=default;fontColor=default;exitX=0.75;exitY=0;exitDx=0;exitDy=0;entryX=0;entryY=0.5;entryDx=0;entryDy=0;" edge="1" parent="1" source="l-ijiBefoV0viMx9o1Fx-98" target="l-ijiBefoV0viMx9o1Fx-99">
          <mxGeometry width="100" height="100" relative="1" as="geometry">
            <mxPoint x="256.5" y="55" as="sourcePoint" />
            <mxPoint x="402.5" y="105" as="targetPoint" />
            <Array as="points">
              <mxPoint x="327" y="110" />
              <mxPoint x="351.5" y="25" />
              <mxPoint x="401.5" y="15" />
              <mxPoint x="333" y="5" />
            </Array>
          </mxGeometry>
        </mxCell>
        <mxCell id="l-ijiBefoV0viMx9o1Fx-107" value="" style="edgeStyle=elbowEdgeStyle;elbow=horizontal;strokeColor=default;strokeWidth=2;labelBackgroundColor=default;fontColor=default;exitX=0.75;exitY=1;exitDx=0;exitDy=0;entryX=0;entryY=0.5;entryDx=0;entryDy=0;" edge="1" parent="1" source="l-ijiBefoV0viMx9o1Fx-98" target="l-ijiBefoV0viMx9o1Fx-101">
          <mxGeometry width="100" height="100" relative="1" as="geometry">
            <mxPoint x="324.75" y="450" as="sourcePoint" />
            <mxPoint x="418" y="360" as="targetPoint" />
            <Array as="points">
              <mxPoint x="325.25" y="390" />
              <mxPoint x="349.75" y="305" />
              <mxPoint x="399.75" y="295" />
              <mxPoint x="331.25" y="285" />
            </Array>
          </mxGeometry>
        </mxCell>
        <mxCell id="l-ijiBefoV0viMx9o1Fx-108" value="" style="edgeStyle=elbowEdgeStyle;elbow=horizontal;strokeColor=default;strokeWidth=2;labelBackgroundColor=default;fontColor=default;exitX=1;exitY=0.32;exitDx=0;exitDy=0;entryX=0;entryY=0.5;entryDx=0;entryDy=0;exitPerimeter=0;" edge="1" parent="1" source="l-ijiBefoV0viMx9o1Fx-98" target="l-ijiBefoV0viMx9o1Fx-100">
          <mxGeometry width="100" height="100" relative="1" as="geometry">
            <mxPoint x="300.75" y="390" as="sourcePoint" />
            <mxPoint x="417.25" y="300" as="targetPoint" />
            <Array as="points">
              <mxPoint x="398" y="190" />
              <mxPoint x="325.75" y="245" />
              <mxPoint x="375.75" y="235" />
              <mxPoint x="307.25" y="225" />
            </Array>
          </mxGeometry>
        </mxCell>
        <mxCell id="l-ijiBefoV0viMx9o1Fx-109" value="" style="edgeStyle=elbowEdgeStyle;elbow=horizontal;strokeColor=default;strokeWidth=2;labelBackgroundColor=default;fontColor=default;exitX=1;exitY=0.75;exitDx=0;exitDy=0;entryX=0;entryY=0.5;entryDx=0;entryDy=0;" edge="1" parent="1" source="l-ijiBefoV0viMx9o1Fx-98" target="l-ijiBefoV0viMx9o1Fx-102">
          <mxGeometry width="100" height="100" relative="1" as="geometry">
            <mxPoint x="354" y="292" as="sourcePoint" />
            <mxPoint x="443" y="270" as="targetPoint" />
            <Array as="points">
              <mxPoint x="388" y="260" />
              <mxPoint x="325.75" y="335" />
              <mxPoint x="375.75" y="325" />
              <mxPoint x="307.25" y="315" />
            </Array>
          </mxGeometry>
        </mxCell>
        <mxCell id="l-ijiBefoV0viMx9o1Fx-112" value="Перечень согласно&lt;br&gt;файлу .xlsx (ОКПД-2)" style="whiteSpace=wrap;html=1;fontStyle=1;strokeWidth=3;fillColor=#FFFFCC;strokeColor=default;fontColor=default;" vertex="1" parent="1">
          <mxGeometry x="673" y="50" width="120" height="60" as="geometry" />
        </mxCell>
      </root>
    </mxGraphModel>
  </diagram>
</mxfile>
